<svg width="24" height="24" xmlns="http://www.w3.org/2000/svg">

 <g>
  <title>background</title>
  <rect fill="none" id="canvas_background" height="602" width="802" y="-1" x="-1"/>
 </g>
 <g>
  <title>Layer 1</title>
  <g fill="white" id="svg_1">
   <rect id="svg_2" width="24" height="24" fill="none"/>
   <path id="svg_3" d="m17,15l1.55,1.55c-0.96,1.69 -3.33,3.04 -5.55,3.37l0,-8.92l3,0l0,-2l-3,0l0,-1.18c1.16,-0.42 2,-1.52 2,-2.82c0,-1.65 -1.35,-3 -3,-3s-3,1.35 -3,3c0,1.3 0.84,2.4 2,2.82l0,1.18l-3,0l0,2l3,0l0,8.92c-2.22,-0.33 -4.59,-1.68 -5.55,-3.37l1.55,-1.55l-4,-3l0,3c0,3.88 4.92,7 9,7s9,-3.12 9,-7l0,-3l-4,3zm-5,-11c0.55,0 1,0.45 1,1s-0.45,1 -1,1s-1,-0.45 -1,-1s0.45,-1 1,-1z"/>
  </g>
 </g>
</svg>