<svg width="24" height="24" xmlns="http://www.w3.org/2000/svg">

 <g>
  <title>background</title>
  <rect fill="none" id="canvas_background" height="602" width="802" y="-1" x="-1"/>
 </g>
 <g>
  <title>Layer 1</title>
  <path id="svg_1" fill="none" d="m0,0l24,0l0,24l-24,0l0,-24z"/>
  <path fill="white" id="svg_2" d="m4,6l16,0l0,2l-16,0l0,-2zm2,-4l12,0l0,2l-12,0l0,-2zm14,8l-16,0c-1.1,0 -2,0.9 -2,2l0,8c0,1.1 0.9,2 2,2l16,0c1.1,0 2,-0.9 2,-2l0,-8c0,-1.1 -0.9,-2 -2,-2zm0,10l-16,0l0,-8l16,0l0,8zm-10,-7.27l0,6.53l6,-3.26l-6,-3.27z"/>
 </g>
</svg>